<svg xmlns="http://www.w3.org/2000/svg" width="13" height="13" fill="none" viewBox="0 0 13 13">
  <path fill="#72767D" d="m1.653 10.019.706.32V5.544l-1.28 3.084a1.076 1.076 0 0 0 .232 1.161c.098.099.214.177.342.23Zm10.27-1.971L9.29 1.654a1.06 1.06 0 0 0-.568-.572 1.042 1.042 0 0 0-.802-.003l-3.86 1.64a1.074 1.074 0 0 0-.569 1.385L6.124 10.5c.08.193.214.358.385.475a1.044 1.044 0 0 0 .985.1l3.855-1.64a1.06 1.06 0 0 0 .57-.573c.107-.26.108-.552.004-.812ZM4.47 4.212a.522.522 0 0 1-.487-.33.539.539 0 0 1 .114-.58.525.525 0 0 1 .9.377.536.536 0 0 1-.155.377.524.524 0 0 1-.372.156Zm-1.054 5.86c0 .283.111.554.309.754.197.2.465.312.745.312h.763L3.417 6.694v3.378Z"/>
</svg>
