<svg xmlns="http://www.w3.org/2000/svg" width="117" height="32" fill="none" viewBox="0 0 117 32">
  <path fill="#fff" d="M17.509 9.34A16.835 16.835 0 0 0 13.245 8a12.51 12.51 0 0 0-.547 1.134 15.665 15.665 0 0 0-4.726 0A12.124 12.124 0 0 0 7.42 8c-1.498.26-2.93.716-4.268 1.343C.454 13.421-.278 17.398.088 21.318a17.051 17.051 0 0 0 5.23 2.68c.42-.58.796-1.195 1.12-1.844a11.013 11.013 0 0 1-1.764-.859c.148-.11.293-.224.432-.342 3.401 1.59 7.097 1.59 10.457 0 .141.118.286.233.432.342-.559.337-1.15.626-1.767.86A12.97 12.97 0 0 0 15.348 24a17.014 17.014 0 0 0 5.233-2.682c.43-4.544-.733-8.484-3.072-11.978ZM6.9 18.907c-1.02 0-1.858-.953-1.858-2.113 0-1.16.82-2.116 1.858-2.116 1.039 0 1.876.953 1.858 2.116.002 1.16-.82 2.113-1.858 2.113Zm6.867 0c-1.02 0-1.858-.953-1.858-2.113 0-1.16.82-2.116 1.858-2.116 1.039 0 1.876.953 1.858 2.116 0 1.16-.82 2.113-1.858 2.113Z"/>
  <path fill="#B9BBBE" d="m39.108 21-3.01-9.8H32.08L29.098 21h2.996l.448-1.68h3.052l.462 1.68h3.052Zm-5.054-7.364.966 3.542h-1.904l.938-3.542ZM44.169 21c3.36 0 5.055-2.156 5.055-5.026 0-2.828-1.638-4.774-4.914-4.774h-4.2V21h4.06Zm-1.175-7.238h1.19c1.33 0 2.002.868 2.002 2.268 0 1.414-.687 2.408-2.059 2.408h-1.134v-4.676ZM62.228 11.2h-4.102l-1.498 5.782-1.414-5.782H51.03l-.7 9.8h2.618l.49-6.65L55.09 21h2.898l1.652-6.524.602 6.524h2.842l-.854-9.8Zm5.237 9.8v-9.8h-2.884V21h2.884Zm8.455-3.85-3.066-5.95h-3.556V21h2.716v-6.146L75.291 21h3.36v-9.8h-2.73v5.95Z"/>
</svg>
