<svg xmlns="http://www.w3.org/2000/svg" width="13" height="13" fill="none" viewBox="0 0 13 13">
  <path fill="#72767D" fill-rule="evenodd" d="M2.1 1h2.75c.607 0 1.1.494 1.1 1.1v2.75c0 .606-.493 1.1-1.1 1.1H2.1c-.607 0-1.1-.494-1.1-1.1V2.1C1 1.494 1.493 1 2.1 1Zm6.05 0h2.75c.607 0 1.1.494 1.1 1.1v2.75c0 .606-.493 1.1-1.1 1.1H8.15c-.607 0-1.1-.494-1.1-1.1V2.1c0-.606.493-1.1 1.1-1.1Zm-3.3 6.05H2.1c-.607 0-1.1.494-1.1 1.1v2.75A1.1 1.1 0 0 0 2.1 12h2.75a1.1 1.1 0 0 0 1.1-1.1V8.15c0-.606-.493-1.1-1.1-1.1Zm3.3 0h2.75c.607 0 1.1.494 1.1 1.1v2.75a1.1 1.1 0 0 1-1.1 1.1H8.15a1.1 1.1 0 0 1-1.1-1.1V8.15c0-.606.493-1.1 1.1-1.1Z" clip-rule="evenodd"/>
</svg>
